<?xml version="1.0" encoding="UTF-8" standalone="no"?>
<!DOCTYPE svg PUBLIC "-//W3C//DTD SVG 1.1//EN"
 "http://www.w3.org/Graphics/SVG/1.1/DTD/svg11.dtd">
<!-- Generated by graphviz version 14.1.4 (0)
 -->
<!-- Title: G Pages: 1 -->
<svg width="646pt" height="332pt"
 viewBox="0.00 0.00 646.00 332.00" xmlns="http://www.w3.org/2000/svg" xmlns:xlink="http://www.w3.org/1999/xlink">
<g id="graph0" class="graph" transform="scale(1 1) rotate(0) translate(4 328)">
<title>G</title>
<polygon fill="white" stroke="none" points="-4,4 -4,-328 641.69,-328 641.69,4 -4,4"/>
<!-- get_maps -->
<g id="node1" class="node">
<title>get_maps</title>
<ellipse fill="none" stroke="black" cx="322.05" cy="-306" rx="46.75" ry="18"/>
<text xml:space="preserve" text-anchor="middle" x="322.05" y="-300.95" font-family="Times,serif" font-size="14.00">get_maps</text>
</g>
<!-- parse_command -->
<g id="node2" class="node">
<title>parse_command</title>
<ellipse fill="none" stroke="black" cx="322.05" cy="-234" rx="72.34" ry="18"/>
<text xml:space="preserve" text-anchor="middle" x="322.05" y="-228.95" font-family="Times,serif" font-size="14.00">parse_command</text>
</g>
<!-- get_maps&#45;&gt;parse_command -->
<g id="edge1" class="edge">
<title>get_maps&#45;&gt;parse_command</title>
<path fill="none" stroke="black" d="M322.05,-287.7C322.05,-280.41 322.05,-271.73 322.05,-263.54"/>
<polygon fill="black" stroke="black" points="325.55,-263.62 322.05,-253.62 318.55,-263.62 325.55,-263.62"/>
</g>
<!-- parse_search -->
<g id="node3" class="node">
<title>parse_search</title>
<ellipse fill="none" stroke="black" cx="63.05" cy="-162" rx="58.52" ry="18"/>
<text xml:space="preserve" text-anchor="middle" x="63.05" y="-156.95" font-family="Times,serif" font-size="14.00">parse_search</text>
</g>
<!-- parse_command&#45;&gt;parse_search -->
<g id="edge2" class="edge">
<title>parse_command&#45;&gt;parse_search</title>
<path fill="none" stroke="black" d="M274.25,-220.08C229.69,-208.04 163.31,-190.1 116.9,-177.55"/>
<polygon fill="black" stroke="black" points="117.88,-174.19 107.31,-174.96 116.06,-180.95 117.88,-174.19"/>
</g>
<!-- parse_cond -->
<g id="node6" class="node">
<title>parse_cond</title>
<ellipse fill="none" stroke="black" cx="194.05" cy="-162" rx="52.89" ry="18"/>
<text xml:space="preserve" text-anchor="middle" x="194.05" y="-156.95" font-family="Times,serif" font-size="14.00">parse_cond</text>
</g>
<!-- parse_command&#45;&gt;parse_cond -->
<g id="edge5" class="edge">
<title>parse_command&#45;&gt;parse_cond</title>
<path fill="none" stroke="black" d="M293.01,-217.12C274.67,-207.09 250.8,-194.03 231.1,-183.26"/>
<polygon fill="black" stroke="black" points="233.01,-180.32 222.56,-178.59 229.65,-186.46 233.01,-180.32"/>
</g>
<!-- parse_watch -->
<g id="node8" class="node">
<title>parse_watch</title>
<ellipse fill="none" stroke="black" cx="322.05" cy="-162" rx="56.98" ry="18"/>
<text xml:space="preserve" text-anchor="middle" x="322.05" y="-156.95" font-family="Times,serif" font-size="14.00">parse_watch</text>
</g>
<!-- parse_command&#45;&gt;parse_watch -->
<g id="edge7" class="edge">
<title>parse_command&#45;&gt;parse_watch</title>
<path fill="none" stroke="black" d="M322.05,-215.7C322.05,-208.41 322.05,-199.73 322.05,-191.54"/>
<polygon fill="black" stroke="black" points="325.55,-191.62 322.05,-181.62 318.55,-191.62 325.55,-191.62"/>
</g>
<!-- parse_delete -->
<g id="node10" class="node">
<title>parse_delete</title>
<ellipse fill="none" stroke="black" cx="454.05" cy="-162" rx="56.98" ry="18"/>
<text xml:space="preserve" text-anchor="middle" x="454.05" y="-156.95" font-family="Times,serif" font-size="14.00">parse_delete</text>
</g>
<!-- parse_command&#45;&gt;parse_delete -->
<g id="edge9" class="edge">
<title>parse_command&#45;&gt;parse_delete</title>
<path fill="none" stroke="black" d="M351.68,-217.29C370.66,-207.22 395.49,-194.05 415.94,-183.21"/>
<polygon fill="black" stroke="black" points="417.35,-186.42 424.55,-178.65 414.07,-180.24 417.35,-186.42"/>
</g>
<!-- parse_set -->
<g id="node11" class="node">
<title>parse_set</title>
<ellipse fill="none" stroke="black" cx="574.05" cy="-162" rx="45.21" ry="18"/>
<text xml:space="preserve" text-anchor="middle" x="574.05" y="-156.95" font-family="Times,serif" font-size="14.00">parse_set</text>
</g>
<!-- parse_command&#45;&gt;parse_set -->
<g id="edge10" class="edge">
<title>parse_command&#45;&gt;parse_set</title>
<path fill="none" stroke="black" d="M371.45,-220.41C411.6,-210.03 469.66,-194.67 520.05,-180 522.92,-179.17 525.86,-178.29 528.83,-177.4"/>
<polygon fill="black" stroke="black" points="529.57,-180.83 538.1,-174.55 527.52,-174.14 529.57,-180.83"/>
</g>
<!-- search_value -->
<g id="node4" class="node">
<title>search_value</title>
<ellipse fill="none" stroke="black" cx="60.05" cy="-90" rx="59.03" ry="18"/>
<text xml:space="preserve" text-anchor="middle" x="60.05" y="-84.95" font-family="Times,serif" font-size="14.00">search_value</text>
</g>
<!-- parse_search&#45;&gt;search_value -->
<g id="edge3" class="edge">
<title>parse_search&#45;&gt;search_value</title>
<path fill="none" stroke="black" d="M62.31,-143.7C62,-136.41 61.63,-127.73 61.28,-119.54"/>
<polygon fill="black" stroke="black" points="64.78,-119.46 60.85,-109.62 57.78,-119.76 64.78,-119.46"/>
</g>
<!-- mode_search -->
<g id="node5" class="node">
<title>mode_search</title>
<ellipse fill="none" stroke="black" cx="60.05" cy="-18" rx="60.05" ry="18"/>
<text xml:space="preserve" text-anchor="middle" x="60.05" y="-12.95" font-family="Times,serif" font-size="14.00">mode_search</text>
</g>
<!-- search_value&#45;&gt;mode_search -->
<g id="edge4" class="edge">
<title>search_value&#45;&gt;mode_search</title>
<path fill="none" stroke="black" d="M60.05,-71.7C60.05,-64.41 60.05,-55.73 60.05,-47.54"/>
<polygon fill="black" stroke="black" points="63.55,-47.62 60.05,-37.62 56.55,-47.62 63.55,-47.62"/>
</g>
<!-- search_cond -->
<g id="node7" class="node">
<title>search_cond</title>
<ellipse fill="none" stroke="black" cx="194.05" cy="-90" rx="56.98" ry="18"/>
<text xml:space="preserve" text-anchor="middle" x="194.05" y="-84.95" font-family="Times,serif" font-size="14.00">search_cond</text>
</g>
<!-- parse_cond&#45;&gt;search_cond -->
<g id="edge6" class="edge">
<title>parse_cond&#45;&gt;search_cond</title>
<path fill="none" stroke="black" d="M194.05,-143.7C194.05,-136.41 194.05,-127.73 194.05,-119.54"/>
<polygon fill="black" stroke="black" points="197.55,-119.62 194.05,-109.62 190.55,-119.62 197.55,-119.62"/>
</g>
<!-- watch_value -->
<g id="node9" class="node">
<title>watch_value</title>
<ellipse fill="none" stroke="black" cx="326.05" cy="-90" rx="57.49" ry="18"/>
<text xml:space="preserve" text-anchor="middle" x="326.05" y="-84.95" font-family="Times,serif" font-size="14.00">watch_value</text>
</g>
<!-- parse_watch&#45;&gt;watch_value -->
<g id="edge8" class="edge">
<title>parse_watch&#45;&gt;watch_value</title>
<path fill="none" stroke="black" d="M323.04,-143.7C323.46,-136.41 323.95,-127.73 324.42,-119.54"/>
<polygon fill="black" stroke="black" points="327.91,-119.8 324.99,-109.62 320.92,-119.4 327.91,-119.8"/>
</g>
<!-- modify_target -->
<g id="node12" class="node">
<title>modify_target</title>
<ellipse fill="none" stroke="black" cx="574.05" cy="-90" rx="63.63" ry="18"/>
<text xml:space="preserve" text-anchor="middle" x="574.05" y="-84.95" font-family="Times,serif" font-size="14.00">modify_target</text>
</g>
<!-- parse_set&#45;&gt;modify_target -->
<g id="edge11" class="edge">
<title>parse_set&#45;&gt;modify_target</title>
<path fill="none" stroke="black" d="M574.05,-143.7C574.05,-136.41 574.05,-127.73 574.05,-119.54"/>
<polygon fill="black" stroke="black" points="577.55,-119.62 574.05,-109.62 570.55,-119.62 577.55,-119.62"/>
</g>
</g>
</svg>
