<?xml version="1.0" encoding="UTF-8" standalone="no"?>
<!DOCTYPE svg PUBLIC "-//W3C//DTD SVG 1.1//EN"
 "http://www.w3.org/Graphics/SVG/1.1/DTD/svg11.dtd">
<!-- Generated by graphviz version 14.1.4 (0)
 -->
<!-- Title: G Pages: 1 -->
<svg width="654pt" height="332pt"
 viewBox="0.00 0.00 654.00 332.00" xmlns="http://www.w3.org/2000/svg" xmlns:xlink="http://www.w3.org/1999/xlink">
<g id="graph0" class="graph" transform="scale(1 1) rotate(0) translate(4 328)">
<title>G</title>
<polygon fill="white" stroke="none" points="-4,4 -4,-328 650.36,-328 650.36,4 -4,4"/>
<!-- get_maps -->
<g id="node1" class="node">
<title>get_maps</title>
<ellipse fill="none" stroke="black" cx="330.73" cy="-306" rx="46.75" ry="18"/>
<text xml:space="preserve" text-anchor="middle" x="330.73" y="-300.95" font-family="Times,serif" font-size="14.00">get_maps</text>
</g>
<!-- parse_command -->
<g id="node2" class="node">
<title>parse_command</title>
<ellipse fill="none" stroke="black" cx="330.73" cy="-234" rx="72.34" ry="18"/>
<text xml:space="preserve" text-anchor="middle" x="330.73" y="-228.95" font-family="Times,serif" font-size="14.00">parse_command</text>
</g>
<!-- get_maps&#45;&gt;parse_command -->
<g id="edge1" class="edge">
<title>get_maps&#45;&gt;parse_command</title>
<path fill="none" stroke="black" d="M330.73,-287.7C330.73,-280.41 330.73,-271.73 330.73,-263.54"/>
<polygon fill="black" stroke="black" points="334.23,-263.62 330.73,-253.62 327.23,-263.62 334.23,-263.62"/>
</g>
<!-- parse_search -->
<g id="node3" class="node">
<title>parse_search</title>
<ellipse fill="none" stroke="black" cx="70.73" cy="-162" rx="58.52" ry="18"/>
<text xml:space="preserve" text-anchor="middle" x="70.73" y="-156.95" font-family="Times,serif" font-size="14.00">parse_search</text>
</g>
<!-- parse_command&#45;&gt;parse_search -->
<g id="edge2" class="edge">
<title>parse_command&#45;&gt;parse_search</title>
<path fill="none" stroke="black" d="M283.04,-220.16C238.35,-208.13 171.6,-190.16 124.92,-177.59"/>
<polygon fill="black" stroke="black" points="125.83,-174.21 115.26,-174.99 124.01,-180.97 125.83,-174.21"/>
</g>
<!-- parse_cond -->
<g id="node6" class="node">
<title>parse_cond</title>
<ellipse fill="none" stroke="black" cx="202.73" cy="-162" rx="52.89" ry="18"/>
<text xml:space="preserve" text-anchor="middle" x="202.73" y="-156.95" font-family="Times,serif" font-size="14.00">parse_cond</text>
</g>
<!-- parse_command&#45;&gt;parse_cond -->
<g id="edge5" class="edge">
<title>parse_command&#45;&gt;parse_cond</title>
<path fill="none" stroke="black" d="M301.68,-217.12C283.34,-207.09 259.48,-194.03 239.78,-183.26"/>
<polygon fill="black" stroke="black" points="241.69,-180.32 231.24,-178.59 238.33,-186.46 241.69,-180.32"/>
</g>
<!-- parse_watch -->
<g id="node8" class="node">
<title>parse_watch</title>
<ellipse fill="none" stroke="black" cx="330.73" cy="-162" rx="56.98" ry="18"/>
<text xml:space="preserve" text-anchor="middle" x="330.73" y="-156.95" font-family="Times,serif" font-size="14.00">parse_watch</text>
</g>
<!-- parse_command&#45;&gt;parse_watch -->
<g id="edge7" class="edge">
<title>parse_command&#45;&gt;parse_watch</title>
<path fill="none" stroke="black" d="M330.73,-215.7C330.73,-208.41 330.73,-199.73 330.73,-191.54"/>
<polygon fill="black" stroke="black" points="334.23,-191.62 330.73,-181.62 327.23,-191.62 334.23,-191.62"/>
</g>
<!-- parse_delete -->
<g id="node10" class="node">
<title>parse_delete</title>
<ellipse fill="none" stroke="black" cx="462.73" cy="-162" rx="56.98" ry="18"/>
<text xml:space="preserve" text-anchor="middle" x="462.73" y="-156.95" font-family="Times,serif" font-size="14.00">parse_delete</text>
</g>
<!-- parse_command&#45;&gt;parse_delete -->
<g id="edge9" class="edge">
<title>parse_command&#45;&gt;parse_delete</title>
<path fill="none" stroke="black" d="M360.35,-217.29C379.34,-207.22 404.17,-194.05 424.62,-183.21"/>
<polygon fill="black" stroke="black" points="426.03,-186.42 433.22,-178.65 422.75,-180.24 426.03,-186.42"/>
</g>
<!-- parse_set -->
<g id="node11" class="node">
<title>parse_set</title>
<ellipse fill="none" stroke="black" cx="582.73" cy="-162" rx="45.21" ry="18"/>
<text xml:space="preserve" text-anchor="middle" x="582.73" y="-156.95" font-family="Times,serif" font-size="14.00">parse_set</text>
</g>
<!-- parse_command&#45;&gt;parse_set -->
<g id="edge10" class="edge">
<title>parse_command&#45;&gt;parse_set</title>
<path fill="none" stroke="black" d="M380.12,-220.41C420.28,-210.03 478.33,-194.67 528.73,-180 531.59,-179.17 534.54,-178.29 537.5,-177.4"/>
<polygon fill="black" stroke="black" points="538.25,-180.83 546.78,-174.55 536.19,-174.14 538.25,-180.83"/>
</g>
<!-- search_target -->
<g id="node4" class="node">
<title>search_target</title>
<ellipse fill="none" stroke="black" cx="67.73" cy="-90" rx="60.05" ry="18"/>
<text xml:space="preserve" text-anchor="middle" x="67.73" y="-84.95" font-family="Times,serif" font-size="14.00">search_target</text>
</g>
<!-- parse_search&#45;&gt;search_target -->
<g id="edge3" class="edge">
<title>parse_search&#45;&gt;search_target</title>
<path fill="none" stroke="black" d="M69.99,-143.7C69.68,-136.41 69.3,-127.73 68.95,-119.54"/>
<polygon fill="black" stroke="black" points="72.45,-119.46 68.53,-109.62 65.46,-119.76 72.45,-119.46"/>
</g>
<!-- __bytes_search -->
<g id="node5" class="node">
<title>__bytes_search</title>
<ellipse fill="none" stroke="black" cx="67.73" cy="-18" rx="67.73" ry="18"/>
<text xml:space="preserve" text-anchor="middle" x="67.73" y="-12.95" font-family="Times,serif" font-size="14.00">__bytes_search</text>
</g>
<!-- search_target&#45;&gt;__bytes_search -->
<g id="edge4" class="edge">
<title>search_target&#45;&gt;__bytes_search</title>
<path fill="none" stroke="black" d="M67.73,-71.7C67.73,-64.41 67.73,-55.73 67.73,-47.54"/>
<polygon fill="black" stroke="black" points="71.23,-47.62 67.73,-37.62 64.23,-47.62 71.23,-47.62"/>
</g>
<!-- search_cond -->
<g id="node7" class="node">
<title>search_cond</title>
<ellipse fill="none" stroke="black" cx="202.73" cy="-90" rx="56.98" ry="18"/>
<text xml:space="preserve" text-anchor="middle" x="202.73" y="-84.95" font-family="Times,serif" font-size="14.00">search_cond</text>
</g>
<!-- parse_cond&#45;&gt;search_cond -->
<g id="edge6" class="edge">
<title>parse_cond&#45;&gt;search_cond</title>
<path fill="none" stroke="black" d="M202.73,-143.7C202.73,-136.41 202.73,-127.73 202.73,-119.54"/>
<polygon fill="black" stroke="black" points="206.23,-119.62 202.73,-109.62 199.23,-119.62 206.23,-119.62"/>
</g>
<!-- watch_value -->
<g id="node9" class="node">
<title>watch_value</title>
<ellipse fill="none" stroke="black" cx="334.73" cy="-90" rx="57.49" ry="18"/>
<text xml:space="preserve" text-anchor="middle" x="334.73" y="-84.95" font-family="Times,serif" font-size="14.00">watch_value</text>
</g>
<!-- parse_watch&#45;&gt;watch_value -->
<g id="edge8" class="edge">
<title>parse_watch&#45;&gt;watch_value</title>
<path fill="none" stroke="black" d="M331.72,-143.7C332.13,-136.41 332.63,-127.73 333.1,-119.54"/>
<polygon fill="black" stroke="black" points="336.59,-119.8 333.67,-109.62 329.6,-119.4 336.59,-119.8"/>
</g>
<!-- modify_target -->
<g id="node12" class="node">
<title>modify_target</title>
<ellipse fill="none" stroke="black" cx="582.73" cy="-90" rx="63.63" ry="18"/>
<text xml:space="preserve" text-anchor="middle" x="582.73" y="-84.95" font-family="Times,serif" font-size="14.00">modify_target</text>
</g>
<!-- parse_set&#45;&gt;modify_target -->
<g id="edge11" class="edge">
<title>parse_set&#45;&gt;modify_target</title>
<path fill="none" stroke="black" d="M582.73,-143.7C582.73,-136.41 582.73,-127.73 582.73,-119.54"/>
<polygon fill="black" stroke="black" points="586.23,-119.62 582.73,-109.62 579.23,-119.62 586.23,-119.62"/>
</g>
</g>
</svg>
