<?xml version="1.0" encoding="UTF-8" standalone="no"?>
<!DOCTYPE svg PUBLIC "-//W3C//DTD SVG 1.1//EN"
 "http://www.w3.org/Graphics/SVG/1.1/DTD/svg11.dtd">
<!-- Generated by graphviz version 14.1.4 (0)
 -->
<!-- Title: G Pages: 1 -->
<svg width="632pt" height="404pt"
 viewBox="0.00 0.00 632.00 404.00" xmlns="http://www.w3.org/2000/svg" xmlns:xlink="http://www.w3.org/1999/xlink">
<g id="graph0" class="graph" transform="scale(1 1) rotate(0) translate(4 400)">
<title>G</title>
<polygon fill="white" stroke="none" points="-4,4 -4,-400 627.69,-400 627.69,4 -4,4"/>
<!-- get_maps -->
<g id="node1" class="node">
<title>get_maps</title>
<ellipse fill="none" stroke="black" cx="308.05" cy="-378" rx="46.75" ry="18"/>
<text xml:space="preserve" text-anchor="middle" x="308.05" y="-372.95" font-family="Times,serif" font-size="14.00">get_maps</text>
</g>
<!-- parse_command -->
<g id="node2" class="node">
<title>parse_command</title>
<ellipse fill="none" stroke="black" cx="308.05" cy="-306" rx="72.34" ry="18"/>
<text xml:space="preserve" text-anchor="middle" x="308.05" y="-300.95" font-family="Times,serif" font-size="14.00">parse_command</text>
</g>
<!-- get_maps&#45;&gt;parse_command -->
<g id="edge1" class="edge">
<title>get_maps&#45;&gt;parse_command</title>
<path fill="none" stroke="black" d="M308.05,-359.7C308.05,-352.41 308.05,-343.73 308.05,-335.54"/>
<polygon fill="black" stroke="black" points="311.55,-335.62 308.05,-325.62 304.55,-335.62 311.55,-335.62"/>
</g>
<!-- parse_search -->
<g id="node3" class="node">
<title>parse_search</title>
<ellipse fill="none" stroke="black" cx="60.05" cy="-162" rx="58.52" ry="18"/>
<text xml:space="preserve" text-anchor="middle" x="60.05" y="-156.95" font-family="Times,serif" font-size="14.00">parse_search</text>
</g>
<!-- parse_command&#45;&gt;parse_search -->
<g id="edge2" class="edge">
<title>parse_command&#45;&gt;parse_search</title>
<path fill="none" stroke="black" d="M241.82,-298.33C202.76,-291.68 154.09,-278.42 118.05,-252 96.72,-236.36 81.08,-210.3 71.46,-190.42"/>
<polygon fill="black" stroke="black" points="74.71,-189.11 67.36,-181.48 68.35,-192.03 74.71,-189.11"/>
</g>
<!-- parse_cond -->
<g id="node6" class="node">
<title>parse_cond</title>
<ellipse fill="none" stroke="black" cx="180.05" cy="-234" rx="52.89" ry="18"/>
<text xml:space="preserve" text-anchor="middle" x="180.05" y="-228.95" font-family="Times,serif" font-size="14.00">parse_cond</text>
</g>
<!-- parse_command&#45;&gt;parse_cond -->
<g id="edge5" class="edge">
<title>parse_command&#45;&gt;parse_cond</title>
<path fill="none" stroke="black" d="M279.01,-289.12C260.67,-279.09 236.8,-266.03 217.1,-255.26"/>
<polygon fill="black" stroke="black" points="219.01,-252.32 208.56,-250.59 215.65,-258.46 219.01,-252.32"/>
</g>
<!-- parse_watch -->
<g id="node8" class="node">
<title>parse_watch</title>
<ellipse fill="none" stroke="black" cx="308.05" cy="-234" rx="56.98" ry="18"/>
<text xml:space="preserve" text-anchor="middle" x="308.05" y="-228.95" font-family="Times,serif" font-size="14.00">parse_watch</text>
</g>
<!-- parse_command&#45;&gt;parse_watch -->
<g id="edge8" class="edge">
<title>parse_command&#45;&gt;parse_watch</title>
<path fill="none" stroke="black" d="M308.05,-287.7C308.05,-280.41 308.05,-271.73 308.05,-263.54"/>
<polygon fill="black" stroke="black" points="311.55,-263.62 308.05,-253.62 304.55,-263.62 311.55,-263.62"/>
</g>
<!-- parse_delete -->
<g id="node10" class="node">
<title>parse_delete</title>
<ellipse fill="none" stroke="black" cx="440.05" cy="-234" rx="56.98" ry="18"/>
<text xml:space="preserve" text-anchor="middle" x="440.05" y="-228.95" font-family="Times,serif" font-size="14.00">parse_delete</text>
</g>
<!-- parse_command&#45;&gt;parse_delete -->
<g id="edge10" class="edge">
<title>parse_command&#45;&gt;parse_delete</title>
<path fill="none" stroke="black" d="M337.68,-289.29C356.66,-279.22 381.49,-266.05 401.94,-255.21"/>
<polygon fill="black" stroke="black" points="403.35,-258.42 410.55,-250.65 400.07,-252.24 403.35,-258.42"/>
</g>
<!-- parse_set -->
<g id="node11" class="node">
<title>parse_set</title>
<ellipse fill="none" stroke="black" cx="560.05" cy="-234" rx="45.21" ry="18"/>
<text xml:space="preserve" text-anchor="middle" x="560.05" y="-228.95" font-family="Times,serif" font-size="14.00">parse_set</text>
</g>
<!-- parse_command&#45;&gt;parse_set -->
<g id="edge11" class="edge">
<title>parse_command&#45;&gt;parse_set</title>
<path fill="none" stroke="black" d="M357.45,-292.41C397.6,-282.03 455.66,-266.67 506.05,-252 508.92,-251.17 511.86,-250.29 514.83,-249.4"/>
<polygon fill="black" stroke="black" points="515.57,-252.83 524.1,-246.55 513.52,-246.14 515.57,-252.83"/>
</g>
<!-- search_value -->
<g id="node4" class="node">
<title>search_value</title>
<ellipse fill="none" stroke="black" cx="60.05" cy="-90" rx="59.03" ry="18"/>
<text xml:space="preserve" text-anchor="middle" x="60.05" y="-84.95" font-family="Times,serif" font-size="14.00">search_value</text>
</g>
<!-- parse_search&#45;&gt;search_value -->
<g id="edge3" class="edge">
<title>parse_search&#45;&gt;search_value</title>
<path fill="none" stroke="black" d="M60.05,-143.7C60.05,-136.41 60.05,-127.73 60.05,-119.54"/>
<polygon fill="black" stroke="black" points="63.55,-119.62 60.05,-109.62 56.55,-119.62 63.55,-119.62"/>
</g>
<!-- mode_search -->
<g id="node5" class="node">
<title>mode_search</title>
<ellipse fill="none" stroke="black" cx="60.05" cy="-18" rx="60.05" ry="18"/>
<text xml:space="preserve" text-anchor="middle" x="60.05" y="-12.95" font-family="Times,serif" font-size="14.00">mode_search</text>
</g>
<!-- search_value&#45;&gt;mode_search -->
<g id="edge4" class="edge">
<title>search_value&#45;&gt;mode_search</title>
<path fill="none" stroke="black" d="M60.05,-71.7C60.05,-64.41 60.05,-55.73 60.05,-47.54"/>
<polygon fill="black" stroke="black" points="63.55,-47.62 60.05,-37.62 56.55,-47.62 63.55,-47.62"/>
</g>
<!-- parse_cond&#45;&gt;parse_search -->
<g id="edge7" class="edge">
<title>parse_cond&#45;&gt;parse_search</title>
<path fill="none" stroke="black" d="M154.31,-217.98C137.46,-208.15 115.19,-195.16 96.52,-184.27"/>
<polygon fill="black" stroke="black" points="98.29,-181.25 87.89,-179.24 94.76,-187.3 98.29,-181.25"/>
</g>
<!-- search_cond -->
<g id="node7" class="node">
<title>search_cond</title>
<ellipse fill="none" stroke="black" cx="193.05" cy="-162" rx="56.98" ry="18"/>
<text xml:space="preserve" text-anchor="middle" x="193.05" y="-156.95" font-family="Times,serif" font-size="14.00">search_cond</text>
</g>
<!-- parse_cond&#45;&gt;search_cond -->
<g id="edge6" class="edge">
<title>parse_cond&#45;&gt;search_cond</title>
<path fill="none" stroke="black" d="M183.27,-215.7C184.64,-208.32 186.27,-199.52 187.81,-191.25"/>
<polygon fill="black" stroke="black" points="191.21,-192.06 189.6,-181.59 184.33,-190.79 191.21,-192.06"/>
</g>
<!-- watch_value -->
<g id="node9" class="node">
<title>watch_value</title>
<ellipse fill="none" stroke="black" cx="325.05" cy="-162" rx="57.49" ry="18"/>
<text xml:space="preserve" text-anchor="middle" x="325.05" y="-156.95" font-family="Times,serif" font-size="14.00">watch_value</text>
</g>
<!-- parse_watch&#45;&gt;watch_value -->
<g id="edge9" class="edge">
<title>parse_watch&#45;&gt;watch_value</title>
<path fill="none" stroke="black" d="M312.25,-215.7C314.05,-208.32 316.18,-199.52 318.19,-191.25"/>
<polygon fill="black" stroke="black" points="321.58,-192.12 320.54,-181.58 314.78,-190.47 321.58,-192.12"/>
</g>
<!-- modify_target -->
<g id="node12" class="node">
<title>modify_target</title>
<ellipse fill="none" stroke="black" cx="560.05" cy="-162" rx="63.63" ry="18"/>
<text xml:space="preserve" text-anchor="middle" x="560.05" y="-156.95" font-family="Times,serif" font-size="14.00">modify_target</text>
</g>
<!-- parse_set&#45;&gt;modify_target -->
<g id="edge12" class="edge">
<title>parse_set&#45;&gt;modify_target</title>
<path fill="none" stroke="black" d="M560.05,-215.7C560.05,-208.41 560.05,-199.73 560.05,-191.54"/>
<polygon fill="black" stroke="black" points="563.55,-191.62 560.05,-181.62 556.55,-191.62 563.55,-191.62"/>
</g>
</g>
</svg>
