<?xml version="1.0" encoding="UTF-8" standalone="no"?>
<!DOCTYPE svg PUBLIC "-//W3C//DTD SVG 1.1//EN"
 "http://www.w3.org/Graphics/SVG/1.1/DTD/svg11.dtd">
<!-- Generated by graphviz version 14.1.4 (0)
 -->
<!-- Title: G Pages: 1 -->
<svg width="792pt" height="332pt"
 viewBox="0.00 0.00 792.00 332.00" xmlns="http://www.w3.org/2000/svg" xmlns:xlink="http://www.w3.org/1999/xlink">
<g id="graph0" class="graph" transform="scale(1 1) rotate(0) translate(4 328)">
<title>G</title>
<polygon fill="white" stroke="none" points="-4,4 -4,-328 788.36,-328 788.36,4 -4,4"/>
<!-- get_maps -->
<g id="node1" class="node">
<title>get_maps</title>
<ellipse fill="none" stroke="black" cx="402.73" cy="-306" rx="46.75" ry="18"/>
<text xml:space="preserve" text-anchor="middle" x="402.73" y="-300.95" font-family="Times,serif" font-size="14.00">get_maps</text>
</g>
<!-- parse_command -->
<g id="node2" class="node">
<title>parse_command</title>
<ellipse fill="none" stroke="black" cx="402.73" cy="-234" rx="72.34" ry="18"/>
<text xml:space="preserve" text-anchor="middle" x="402.73" y="-228.95" font-family="Times,serif" font-size="14.00">parse_command</text>
</g>
<!-- get_maps&#45;&gt;parse_command -->
<g id="edge1" class="edge">
<title>get_maps&#45;&gt;parse_command</title>
<path fill="none" stroke="black" d="M402.73,-287.7C402.73,-280.41 402.73,-271.73 402.73,-263.54"/>
<polygon fill="black" stroke="black" points="406.23,-263.62 402.73,-253.62 399.23,-263.62 406.23,-263.62"/>
</g>
<!-- parse_search -->
<g id="node3" class="node">
<title>parse_search</title>
<ellipse fill="none" stroke="black" cx="72.73" cy="-162" rx="58.52" ry="18"/>
<text xml:space="preserve" text-anchor="middle" x="72.73" y="-156.95" font-family="Times,serif" font-size="14.00">parse_search</text>
</g>
<!-- parse_command&#45;&gt;parse_search -->
<g id="edge2" class="edge">
<title>parse_command&#45;&gt;parse_search</title>
<path fill="none" stroke="black" d="M346.81,-222.23C294.07,-211.92 212.87,-195.66 142.73,-180 137.93,-178.93 132.96,-177.79 127.97,-176.62"/>
<polygon fill="black" stroke="black" points="129.12,-173.29 118.58,-174.39 127.5,-180.1 129.12,-173.29"/>
</g>
<!-- parse_cond -->
<g id="node6" class="node">
<title>parse_cond</title>
<ellipse fill="none" stroke="black" cx="204.73" cy="-162" rx="52.89" ry="18"/>
<text xml:space="preserve" text-anchor="middle" x="204.73" y="-156.95" font-family="Times,serif" font-size="14.00">parse_cond</text>
</g>
<!-- parse_command&#45;&gt;parse_cond -->
<g id="edge5" class="edge">
<title>parse_command&#45;&gt;parse_cond</title>
<path fill="none" stroke="black" d="M362.18,-218.67C329.92,-207.26 284.76,-191.29 251.07,-179.38"/>
<polygon fill="black" stroke="black" points="252.59,-176.21 241.99,-176.17 250.26,-182.81 252.59,-176.21"/>
</g>
<!-- parse_cond2 -->
<g id="node8" class="node">
<title>parse_cond2</title>
<ellipse fill="none" stroke="black" cx="336.73" cy="-162" rx="57.49" ry="18"/>
<text xml:space="preserve" text-anchor="middle" x="336.73" y="-156.95" font-family="Times,serif" font-size="14.00">parse_cond2</text>
</g>
<!-- parse_command&#45;&gt;parse_cond2 -->
<g id="edge7" class="edge">
<title>parse_command&#45;&gt;parse_cond2</title>
<path fill="none" stroke="black" d="M386.75,-216.05C378.81,-207.63 369.05,-197.28 360.27,-187.97"/>
<polygon fill="black" stroke="black" points="363,-185.77 353.6,-180.89 357.91,-190.57 363,-185.77"/>
</g>
<!-- parse_watch -->
<g id="node10" class="node">
<title>parse_watch</title>
<ellipse fill="none" stroke="black" cx="468.73" cy="-162" rx="56.98" ry="18"/>
<text xml:space="preserve" text-anchor="middle" x="468.73" y="-156.95" font-family="Times,serif" font-size="14.00">parse_watch</text>
</g>
<!-- parse_command&#45;&gt;parse_watch -->
<g id="edge9" class="edge">
<title>parse_command&#45;&gt;parse_watch</title>
<path fill="none" stroke="black" d="M418.71,-216.05C426.77,-207.5 436.7,-196.97 445.58,-187.56"/>
<polygon fill="black" stroke="black" points="448,-190.09 452.32,-180.41 442.91,-185.28 448,-190.09"/>
</g>
<!-- parse_delete -->
<g id="node12" class="node">
<title>parse_delete</title>
<ellipse fill="none" stroke="black" cx="600.73" cy="-162" rx="56.98" ry="18"/>
<text xml:space="preserve" text-anchor="middle" x="600.73" y="-156.95" font-family="Times,serif" font-size="14.00">parse_delete</text>
</g>
<!-- parse_command&#45;&gt;parse_delete -->
<g id="edge11" class="edge">
<title>parse_command&#45;&gt;parse_delete</title>
<path fill="none" stroke="black" d="M443.28,-218.67C475.23,-207.37 519.84,-191.6 553.42,-179.72"/>
<polygon fill="black" stroke="black" points="554.22,-183.15 562.48,-176.52 551.89,-176.55 554.22,-183.15"/>
</g>
<!-- parse_set -->
<g id="node13" class="node">
<title>parse_set</title>
<ellipse fill="none" stroke="black" cx="720.73" cy="-162" rx="45.21" ry="18"/>
<text xml:space="preserve" text-anchor="middle" x="720.73" y="-156.95" font-family="Times,serif" font-size="14.00">parse_set</text>
</g>
<!-- parse_command&#45;&gt;parse_set -->
<g id="edge12" class="edge">
<title>parse_command&#45;&gt;parse_set</title>
<path fill="none" stroke="black" d="M461.33,-223.09C515.1,-213.56 596.78,-197.98 666.73,-180 669.81,-179.21 672.97,-178.35 676.15,-177.44"/>
<polygon fill="black" stroke="black" points="676.85,-180.88 685.45,-174.69 674.86,-174.17 676.85,-180.88"/>
</g>
<!-- search_target -->
<g id="node4" class="node">
<title>search_target</title>
<ellipse fill="none" stroke="black" cx="67.73" cy="-90" rx="60.05" ry="18"/>
<text xml:space="preserve" text-anchor="middle" x="67.73" y="-84.95" font-family="Times,serif" font-size="14.00">search_target</text>
</g>
<!-- parse_search&#45;&gt;search_target -->
<g id="edge3" class="edge">
<title>parse_search&#45;&gt;search_target</title>
<path fill="none" stroke="black" d="M71.49,-143.7C70.97,-136.41 70.35,-127.73 69.77,-119.54"/>
<polygon fill="black" stroke="black" points="73.26,-119.34 69.06,-109.61 66.28,-119.84 73.26,-119.34"/>
</g>
<!-- __bytes_search -->
<g id="node5" class="node">
<title>__bytes_search</title>
<ellipse fill="none" stroke="black" cx="67.73" cy="-18" rx="67.73" ry="18"/>
<text xml:space="preserve" text-anchor="middle" x="67.73" y="-12.95" font-family="Times,serif" font-size="14.00">__bytes_search</text>
</g>
<!-- search_target&#45;&gt;__bytes_search -->
<g id="edge4" class="edge">
<title>search_target&#45;&gt;__bytes_search</title>
<path fill="none" stroke="black" d="M67.73,-71.7C67.73,-64.41 67.73,-55.73 67.73,-47.54"/>
<polygon fill="black" stroke="black" points="71.23,-47.62 67.73,-37.62 64.23,-47.62 71.23,-47.62"/>
</g>
<!-- search_cond -->
<g id="node7" class="node">
<title>search_cond</title>
<ellipse fill="none" stroke="black" cx="202.73" cy="-90" rx="56.98" ry="18"/>
<text xml:space="preserve" text-anchor="middle" x="202.73" y="-84.95" font-family="Times,serif" font-size="14.00">search_cond</text>
</g>
<!-- parse_cond&#45;&gt;search_cond -->
<g id="edge6" class="edge">
<title>parse_cond&#45;&gt;search_cond</title>
<path fill="none" stroke="black" d="M204.23,-143.7C204.03,-136.41 203.78,-127.73 203.54,-119.54"/>
<polygon fill="black" stroke="black" points="207.05,-119.51 203.26,-109.62 200.05,-119.71 207.05,-119.51"/>
</g>
<!-- search_cond2 -->
<g id="node9" class="node">
<title>search_cond2</title>
<ellipse fill="none" stroke="black" cx="339.73" cy="-90" rx="61.59" ry="18"/>
<text xml:space="preserve" text-anchor="middle" x="339.73" y="-84.95" font-family="Times,serif" font-size="14.00">search_cond2</text>
</g>
<!-- parse_cond2&#45;&gt;search_cond2 -->
<g id="edge8" class="edge">
<title>parse_cond2&#45;&gt;search_cond2</title>
<path fill="none" stroke="black" d="M337.47,-143.7C337.78,-136.41 338.16,-127.73 338.51,-119.54"/>
<polygon fill="black" stroke="black" points="342,-119.76 338.93,-109.62 335.01,-119.46 342,-119.76"/>
</g>
<!-- watch_value -->
<g id="node11" class="node">
<title>watch_value</title>
<ellipse fill="none" stroke="black" cx="476.73" cy="-90" rx="57.49" ry="18"/>
<text xml:space="preserve" text-anchor="middle" x="476.73" y="-84.95" font-family="Times,serif" font-size="14.00">watch_value</text>
</g>
<!-- parse_watch&#45;&gt;watch_value -->
<g id="edge10" class="edge">
<title>parse_watch&#45;&gt;watch_value</title>
<path fill="none" stroke="black" d="M470.71,-143.7C471.54,-136.41 472.53,-127.73 473.47,-119.54"/>
<polygon fill="black" stroke="black" points="476.94,-119.94 474.6,-109.61 469.99,-119.15 476.94,-119.94"/>
</g>
<!-- modify_target -->
<g id="node14" class="node">
<title>modify_target</title>
<ellipse fill="none" stroke="black" cx="720.73" cy="-90" rx="63.63" ry="18"/>
<text xml:space="preserve" text-anchor="middle" x="720.73" y="-84.95" font-family="Times,serif" font-size="14.00">modify_target</text>
</g>
<!-- parse_set&#45;&gt;modify_target -->
<g id="edge13" class="edge">
<title>parse_set&#45;&gt;modify_target</title>
<path fill="none" stroke="black" d="M720.73,-143.7C720.73,-136.41 720.73,-127.73 720.73,-119.54"/>
<polygon fill="black" stroke="black" points="724.23,-119.62 720.73,-109.62 717.23,-119.62 724.23,-119.62"/>
</g>
</g>
</svg>
