<?xml version="1.0" encoding="UTF-8" standalone="no"?>
<!DOCTYPE svg PUBLIC "-//W3C//DTD SVG 1.1//EN"
 "http://www.w3.org/Graphics/SVG/1.1/DTD/svg11.dtd">
<!-- Generated by graphviz version 14.1.4 (0)
 -->
<!-- Title: G Pages: 1 -->
<svg width="780pt" height="332pt"
 viewBox="0.00 0.00 780.00 332.00" xmlns="http://www.w3.org/2000/svg" xmlns:xlink="http://www.w3.org/1999/xlink">
<g id="graph0" class="graph" transform="scale(1 1) rotate(0) translate(4 328)">
<title>G</title>
<polygon fill="white" stroke="none" points="-4,4 -4,-328 776.36,-328 776.36,4 -4,4"/>
<!-- get_maps -->
<g id="node1" class="node">
<title>get_maps</title>
<ellipse fill="none" stroke="black" cx="390.73" cy="-306" rx="46.75" ry="18"/>
<text xml:space="preserve" text-anchor="middle" x="390.73" y="-300.95" font-family="Times,serif" font-size="14.00">get_maps</text>
</g>
<!-- parse_command -->
<g id="node2" class="node">
<title>parse_command</title>
<ellipse fill="none" stroke="black" cx="390.73" cy="-234" rx="72.34" ry="18"/>
<text xml:space="preserve" text-anchor="middle" x="390.73" y="-228.95" font-family="Times,serif" font-size="14.00">parse_command</text>
</g>
<!-- get_maps&#45;&gt;parse_command -->
<g id="edge1" class="edge">
<title>get_maps&#45;&gt;parse_command</title>
<path fill="none" stroke="black" d="M390.73,-287.7C390.73,-280.41 390.73,-271.73 390.73,-263.54"/>
<polygon fill="black" stroke="black" points="394.23,-263.62 390.73,-253.62 387.23,-263.62 394.23,-263.62"/>
</g>
<!-- parse_search -->
<g id="node3" class="node">
<title>parse_search</title>
<ellipse fill="none" stroke="black" cx="67.73" cy="-162" rx="58.52" ry="18"/>
<text xml:space="preserve" text-anchor="middle" x="67.73" y="-156.95" font-family="Times,serif" font-size="14.00">parse_search</text>
</g>
<!-- parse_command&#45;&gt;parse_search -->
<g id="edge2" class="edge">
<title>parse_command&#45;&gt;parse_search</title>
<path fill="none" stroke="black" d="M334.89,-222.18C282.93,-211.94 203.4,-195.81 134.73,-180 130.69,-179.07 126.52,-178.08 122.33,-177.07"/>
<polygon fill="black" stroke="black" points="123.29,-173.7 112.74,-174.71 121.61,-180.5 123.29,-173.7"/>
</g>
<!-- parse_cond -->
<g id="node6" class="node">
<title>parse_cond</title>
<ellipse fill="none" stroke="black" cx="196.73" cy="-162" rx="52.89" ry="18"/>
<text xml:space="preserve" text-anchor="middle" x="196.73" y="-156.95" font-family="Times,serif" font-size="14.00">parse_cond</text>
</g>
<!-- parse_command&#45;&gt;parse_cond -->
<g id="edge5" class="edge">
<title>parse_command&#45;&gt;parse_cond</title>
<path fill="none" stroke="black" d="M351,-218.67C319.63,-207.35 275.8,-191.53 242.88,-179.65"/>
<polygon fill="black" stroke="black" points="244.18,-176.4 233.59,-176.3 241.81,-182.99 244.18,-176.4"/>
</g>
<!-- parse_cond2 -->
<g id="node8" class="node">
<title>parse_cond2</title>
<ellipse fill="none" stroke="black" cx="324.73" cy="-162" rx="57.49" ry="18"/>
<text xml:space="preserve" text-anchor="middle" x="324.73" y="-156.95" font-family="Times,serif" font-size="14.00">parse_cond2</text>
</g>
<!-- parse_command&#45;&gt;parse_cond2 -->
<g id="edge7" class="edge">
<title>parse_command&#45;&gt;parse_cond2</title>
<path fill="none" stroke="black" d="M374.75,-216.05C366.81,-207.63 357.05,-197.28 348.27,-187.97"/>
<polygon fill="black" stroke="black" points="351,-185.77 341.6,-180.89 345.91,-190.57 351,-185.77"/>
</g>
<!-- parse_watch -->
<g id="node9" class="node">
<title>parse_watch</title>
<ellipse fill="none" stroke="black" cx="456.73" cy="-162" rx="56.98" ry="18"/>
<text xml:space="preserve" text-anchor="middle" x="456.73" y="-156.95" font-family="Times,serif" font-size="14.00">parse_watch</text>
</g>
<!-- parse_command&#45;&gt;parse_watch -->
<g id="edge9" class="edge">
<title>parse_command&#45;&gt;parse_watch</title>
<path fill="none" stroke="black" d="M406.71,-216.05C414.77,-207.5 424.7,-196.97 433.58,-187.56"/>
<polygon fill="black" stroke="black" points="436,-190.09 440.32,-180.41 430.91,-185.28 436,-190.09"/>
</g>
<!-- parse_delete -->
<g id="node11" class="node">
<title>parse_delete</title>
<ellipse fill="none" stroke="black" cx="588.73" cy="-162" rx="56.98" ry="18"/>
<text xml:space="preserve" text-anchor="middle" x="588.73" y="-156.95" font-family="Times,serif" font-size="14.00">parse_delete</text>
</g>
<!-- parse_command&#45;&gt;parse_delete -->
<g id="edge11" class="edge">
<title>parse_command&#45;&gt;parse_delete</title>
<path fill="none" stroke="black" d="M431.28,-218.67C463.23,-207.37 507.84,-191.6 541.42,-179.72"/>
<polygon fill="black" stroke="black" points="542.22,-183.15 550.48,-176.52 539.89,-176.55 542.22,-183.15"/>
</g>
<!-- parse_set -->
<g id="node12" class="node">
<title>parse_set</title>
<ellipse fill="none" stroke="black" cx="708.73" cy="-162" rx="45.21" ry="18"/>
<text xml:space="preserve" text-anchor="middle" x="708.73" y="-156.95" font-family="Times,serif" font-size="14.00">parse_set</text>
</g>
<!-- parse_command&#45;&gt;parse_set -->
<g id="edge12" class="edge">
<title>parse_command&#45;&gt;parse_set</title>
<path fill="none" stroke="black" d="M449.33,-223.09C503.1,-213.56 584.78,-197.98 654.73,-180 657.81,-179.21 660.97,-178.35 664.15,-177.44"/>
<polygon fill="black" stroke="black" points="664.85,-180.88 673.45,-174.69 662.86,-174.17 664.85,-180.88"/>
</g>
<!-- search_target -->
<g id="node4" class="node">
<title>search_target</title>
<ellipse fill="none" stroke="black" cx="67.73" cy="-90" rx="60.05" ry="18"/>
<text xml:space="preserve" text-anchor="middle" x="67.73" y="-84.95" font-family="Times,serif" font-size="14.00">search_target</text>
</g>
<!-- parse_search&#45;&gt;search_target -->
<g id="edge3" class="edge">
<title>parse_search&#45;&gt;search_target</title>
<path fill="none" stroke="black" d="M67.73,-143.7C67.73,-136.41 67.73,-127.73 67.73,-119.54"/>
<polygon fill="black" stroke="black" points="71.23,-119.62 67.73,-109.62 64.23,-119.62 71.23,-119.62"/>
</g>
<!-- __bytes_search -->
<g id="node5" class="node">
<title>__bytes_search</title>
<ellipse fill="none" stroke="black" cx="67.73" cy="-18" rx="67.73" ry="18"/>
<text xml:space="preserve" text-anchor="middle" x="67.73" y="-12.95" font-family="Times,serif" font-size="14.00">__bytes_search</text>
</g>
<!-- search_target&#45;&gt;__bytes_search -->
<g id="edge4" class="edge">
<title>search_target&#45;&gt;__bytes_search</title>
<path fill="none" stroke="black" d="M67.73,-71.7C67.73,-64.41 67.73,-55.73 67.73,-47.54"/>
<polygon fill="black" stroke="black" points="71.23,-47.62 67.73,-37.62 64.23,-47.62 71.23,-47.62"/>
</g>
<!-- __search_cond -->
<g id="node7" class="node">
<title>__search_cond</title>
<ellipse fill="none" stroke="black" cx="263.73" cy="-90" rx="66.19" ry="18"/>
<text xml:space="preserve" text-anchor="middle" x="263.73" y="-84.95" font-family="Times,serif" font-size="14.00">__search_cond</text>
</g>
<!-- parse_cond&#45;&gt;__search_cond -->
<g id="edge6" class="edge">
<title>parse_cond&#45;&gt;__search_cond</title>
<path fill="none" stroke="black" d="M212.61,-144.41C220.78,-135.87 230.92,-125.28 240,-115.79"/>
<polygon fill="black" stroke="black" points="242.53,-118.21 246.92,-108.56 237.48,-113.37 242.53,-118.21"/>
</g>
<!-- parse_cond2&#45;&gt;__search_cond -->
<g id="edge8" class="edge">
<title>parse_cond2&#45;&gt;__search_cond</title>
<path fill="none" stroke="black" d="M310.27,-144.41C303.01,-136.08 294.05,-125.8 285.94,-116.49"/>
<polygon fill="black" stroke="black" points="288.71,-114.34 279.5,-109.1 283.43,-118.94 288.71,-114.34"/>
</g>
<!-- watch_value -->
<g id="node10" class="node">
<title>watch_value</title>
<ellipse fill="none" stroke="black" cx="456.73" cy="-90" rx="57.49" ry="18"/>
<text xml:space="preserve" text-anchor="middle" x="456.73" y="-84.95" font-family="Times,serif" font-size="14.00">watch_value</text>
</g>
<!-- parse_watch&#45;&gt;watch_value -->
<g id="edge10" class="edge">
<title>parse_watch&#45;&gt;watch_value</title>
<path fill="none" stroke="black" d="M456.73,-143.7C456.73,-136.41 456.73,-127.73 456.73,-119.54"/>
<polygon fill="black" stroke="black" points="460.23,-119.62 456.73,-109.62 453.23,-119.62 460.23,-119.62"/>
</g>
<!-- modify_target -->
<g id="node13" class="node">
<title>modify_target</title>
<ellipse fill="none" stroke="black" cx="708.73" cy="-90" rx="63.63" ry="18"/>
<text xml:space="preserve" text-anchor="middle" x="708.73" y="-84.95" font-family="Times,serif" font-size="14.00">modify_target</text>
</g>
<!-- parse_set&#45;&gt;modify_target -->
<g id="edge13" class="edge">
<title>parse_set&#45;&gt;modify_target</title>
<path fill="none" stroke="black" d="M708.73,-143.7C708.73,-136.41 708.73,-127.73 708.73,-119.54"/>
<polygon fill="black" stroke="black" points="712.23,-119.62 708.73,-109.62 705.23,-119.62 712.23,-119.62"/>
</g>
</g>
</svg>
