<?xml version="1.0" encoding="UTF-8" standalone="no"?>
<!DOCTYPE svg PUBLIC "-//W3C//DTD SVG 1.1//EN"
 "http://www.w3.org/Graphics/SVG/1.1/DTD/svg11.dtd">
<!-- Generated by graphviz version 14.1.5 (0)
 -->
<!-- Title: G Pages: 1 -->
<svg width="771pt" height="548pt"
 viewBox="0.00 0.00 771.00 548.00" xmlns="http://www.w3.org/2000/svg" xmlns:xlink="http://www.w3.org/1999/xlink">
<g id="graph0" class="graph" transform="scale(1 1) rotate(0) translate(4 544)">
<title>G</title>
<polygon fill="white" stroke="none" points="-4,4 -4,-544 767.29,-544 767.29,4 -4,4"/>
<!-- get_maps -->
<g id="node1" class="node">
<title>get_maps</title>
<ellipse fill="none" stroke="black" cx="447.65" cy="-522" rx="46.75" ry="18"/>
<text xml:space="preserve" text-anchor="middle" x="447.65" y="-516.95" font-family="Times,serif" font-size="14.00">get_maps</text>
</g>
<!-- parse_command -->
<g id="node2" class="node">
<title>parse_command</title>
<ellipse fill="none" stroke="black" cx="447.65" cy="-450" rx="72.34" ry="18"/>
<text xml:space="preserve" text-anchor="middle" x="447.65" y="-444.95" font-family="Times,serif" font-size="14.00">parse_command</text>
</g>
<!-- get_maps&#45;&gt;parse_command -->
<g id="edge1" class="edge">
<title>get_maps&#45;&gt;parse_command</title>
<path fill="none" stroke="black" d="M447.65,-503.7C447.65,-496.41 447.65,-487.73 447.65,-479.54"/>
<polygon fill="black" stroke="black" points="451.15,-479.62 447.65,-469.62 444.15,-479.62 451.15,-479.62"/>
</g>
<!-- parse_search -->
<g id="node3" class="node">
<title>parse_search</title>
<ellipse fill="none" stroke="black" cx="199.65" cy="-306" rx="58.52" ry="18"/>
<text xml:space="preserve" text-anchor="middle" x="199.65" y="-300.95" font-family="Times,serif" font-size="14.00">parse_search</text>
</g>
<!-- parse_command&#45;&gt;parse_search -->
<g id="edge2" class="edge">
<title>parse_command&#45;&gt;parse_search</title>
<path fill="none" stroke="black" d="M381.42,-442.33C342.36,-435.68 293.69,-422.42 257.65,-396 236.32,-380.36 220.68,-354.3 211.06,-334.42"/>
<polygon fill="black" stroke="black" points="214.31,-333.11 206.96,-325.48 207.95,-336.03 214.31,-333.11"/>
</g>
<!-- parse_cond -->
<g id="node10" class="node">
<title>parse_cond</title>
<ellipse fill="none" stroke="black" cx="319.65" cy="-378" rx="52.89" ry="18"/>
<text xml:space="preserve" text-anchor="middle" x="319.65" y="-372.95" font-family="Times,serif" font-size="14.00">parse_cond</text>
</g>
<!-- parse_command&#45;&gt;parse_cond -->
<g id="edge10" class="edge">
<title>parse_command&#45;&gt;parse_cond</title>
<path fill="none" stroke="black" d="M418.61,-433.12C400.26,-423.09 376.4,-410.03 356.7,-399.26"/>
<polygon fill="black" stroke="black" points="358.61,-396.32 348.16,-394.59 355.25,-402.46 358.61,-396.32"/>
</g>
<!-- parse_watch -->
<g id="node12" class="node">
<title>parse_watch</title>
<ellipse fill="none" stroke="black" cx="447.65" cy="-378" rx="56.98" ry="18"/>
<text xml:space="preserve" text-anchor="middle" x="447.65" y="-372.95" font-family="Times,serif" font-size="14.00">parse_watch</text>
</g>
<!-- parse_command&#45;&gt;parse_watch -->
<g id="edge13" class="edge">
<title>parse_command&#45;&gt;parse_watch</title>
<path fill="none" stroke="black" d="M447.65,-431.7C447.65,-424.41 447.65,-415.73 447.65,-407.54"/>
<polygon fill="black" stroke="black" points="451.15,-407.62 447.65,-397.62 444.15,-407.62 451.15,-407.62"/>
</g>
<!-- parse_delete -->
<g id="node14" class="node">
<title>parse_delete</title>
<ellipse fill="none" stroke="black" cx="579.65" cy="-378" rx="56.98" ry="18"/>
<text xml:space="preserve" text-anchor="middle" x="579.65" y="-372.95" font-family="Times,serif" font-size="14.00">parse_delete</text>
</g>
<!-- parse_command&#45;&gt;parse_delete -->
<g id="edge15" class="edge">
<title>parse_command&#45;&gt;parse_delete</title>
<path fill="none" stroke="black" d="M477.27,-433.29C496.26,-423.22 521.09,-410.05 541.54,-399.21"/>
<polygon fill="black" stroke="black" points="542.95,-402.42 550.15,-394.65 539.67,-396.24 542.95,-402.42"/>
</g>
<!-- parse_set -->
<g id="node15" class="node">
<title>parse_set</title>
<ellipse fill="none" stroke="black" cx="699.65" cy="-378" rx="45.21" ry="18"/>
<text xml:space="preserve" text-anchor="middle" x="699.65" y="-372.95" font-family="Times,serif" font-size="14.00">parse_set</text>
</g>
<!-- parse_command&#45;&gt;parse_set -->
<g id="edge16" class="edge">
<title>parse_command&#45;&gt;parse_set</title>
<path fill="none" stroke="black" d="M497.04,-436.41C537.2,-426.03 595.25,-410.67 645.65,-396 648.52,-395.17 651.46,-394.29 654.43,-393.4"/>
<polygon fill="black" stroke="black" points="655.17,-396.83 663.7,-390.55 653.12,-390.14 655.17,-396.83"/>
</g>
<!-- search_for -->
<g id="node4" class="node">
<title>search_for</title>
<ellipse fill="none" stroke="black" cx="199.65" cy="-234" rx="49.82" ry="18"/>
<text xml:space="preserve" text-anchor="middle" x="199.65" y="-228.95" font-family="Times,serif" font-size="14.00">search_for</text>
</g>
<!-- parse_search&#45;&gt;search_for -->
<g id="edge3" class="edge">
<title>parse_search&#45;&gt;search_for</title>
<path fill="none" stroke="black" d="M199.65,-287.7C199.65,-280.41 199.65,-271.73 199.65,-263.54"/>
<polygon fill="black" stroke="black" points="203.15,-263.62 199.65,-253.62 196.15,-263.62 203.15,-263.62"/>
</g>
<!-- NORMAL -->
<g id="node5" class="node">
<title>NORMAL</title>
<ellipse fill="none" stroke="black" cx="143.65" cy="-162" rx="51.35" ry="18"/>
<text xml:space="preserve" text-anchor="middle" x="143.65" y="-156.95" font-family="Times,serif" font-size="14.00">NORMAL</text>
</g>
<!-- search_for&#45;&gt;NORMAL -->
<g id="edge4" class="edge">
<title>search_for&#45;&gt;NORMAL</title>
<path fill="none" stroke="black" d="M186.38,-216.41C179.68,-208.04 171.42,-197.71 163.95,-188.37"/>
<polygon fill="black" stroke="black" points="166.75,-186.27 157.77,-180.65 161.29,-190.65 166.75,-186.27"/>
</g>
<!-- DEBUG -->
<g id="node8" class="node">
<title>DEBUG</title>
<ellipse fill="none" stroke="black" cx="273.65" cy="-162" rx="42.65" ry="18"/>
<text xml:space="preserve" text-anchor="middle" x="273.65" y="-156.95" font-family="Times,serif" font-size="14.00">DEBUG</text>
</g>
<!-- search_for&#45;&gt;DEBUG -->
<g id="edge7" class="edge">
<title>search_for&#45;&gt;DEBUG</title>
<path fill="none" stroke="black" d="M216.81,-216.76C226.22,-207.87 238.05,-196.67 248.49,-186.8"/>
<polygon fill="black" stroke="black" points="250.88,-189.36 255.74,-179.95 246.07,-184.28 250.88,-189.36"/>
</g>
<!-- search_value_with_thread -->
<g id="node6" class="node">
<title>search_value_with_thread</title>
<ellipse fill="none" stroke="black" cx="107.65" cy="-90" rx="107.65" ry="18"/>
<text xml:space="preserve" text-anchor="middle" x="107.65" y="-84.95" font-family="Times,serif" font-size="14.00">search_value_with_thread</text>
</g>
<!-- NORMAL&#45;&gt;search_value_with_thread -->
<g id="edge5" class="edge">
<title>NORMAL&#45;&gt;search_value_with_thread</title>
<path fill="none" stroke="black" d="M134.94,-144.05C130.97,-136.35 126.18,-127.03 121.72,-118.36"/>
<polygon fill="black" stroke="black" points="124.91,-116.91 117.23,-109.62 118.69,-120.11 124.91,-116.91"/>
</g>
<!-- mode_search -->
<g id="node7" class="node">
<title>mode_search</title>
<ellipse fill="none" stroke="black" cx="199.65" cy="-18" rx="60.05" ry="18"/>
<text xml:space="preserve" text-anchor="middle" x="199.65" y="-12.95" font-family="Times,serif" font-size="14.00">mode_search</text>
</g>
<!-- search_value_with_thread&#45;&gt;mode_search -->
<g id="edge6" class="edge">
<title>search_value_with_thread&#45;&gt;mode_search</title>
<path fill="none" stroke="black" d="M129.92,-72.05C141.82,-63 156.63,-51.73 169.54,-41.91"/>
<polygon fill="black" stroke="black" points="171.49,-44.82 177.33,-35.98 167.25,-39.25 171.49,-44.82"/>
</g>
<!-- search_value -->
<g id="node9" class="node">
<title>search_value</title>
<ellipse fill="none" stroke="black" cx="292.65" cy="-90" rx="59.03" ry="18"/>
<text xml:space="preserve" text-anchor="middle" x="292.65" y="-84.95" font-family="Times,serif" font-size="14.00">search_value</text>
</g>
<!-- DEBUG&#45;&gt;search_value -->
<g id="edge8" class="edge">
<title>DEBUG&#45;&gt;search_value</title>
<path fill="none" stroke="black" d="M278.35,-143.7C280.37,-136.24 282.79,-127.32 285.06,-118.97"/>
<polygon fill="black" stroke="black" points="288.37,-120.13 287.61,-109.57 281.61,-118.3 288.37,-120.13"/>
</g>
<!-- search_value&#45;&gt;mode_search -->
<g id="edge9" class="edge">
<title>search_value&#45;&gt;mode_search</title>
<path fill="none" stroke="black" d="M271.08,-72.76C258.87,-63.58 243.41,-51.94 230,-41.84"/>
<polygon fill="black" stroke="black" points="232.41,-39.27 222.31,-36.06 228.2,-44.87 232.41,-39.27"/>
</g>
<!-- parse_cond&#45;&gt;parse_search -->
<g id="edge12" class="edge">
<title>parse_cond&#45;&gt;parse_search</title>
<path fill="none" stroke="black" d="M293.91,-361.98C277.06,-352.15 254.78,-339.16 236.12,-328.27"/>
<polygon fill="black" stroke="black" points="237.89,-325.25 227.49,-323.24 234.36,-331.3 237.89,-325.25"/>
</g>
<!-- search_cond -->
<g id="node11" class="node">
<title>search_cond</title>
<ellipse fill="none" stroke="black" cx="332.65" cy="-306" rx="56.98" ry="18"/>
<text xml:space="preserve" text-anchor="middle" x="332.65" y="-300.95" font-family="Times,serif" font-size="14.00">search_cond</text>
</g>
<!-- parse_cond&#45;&gt;search_cond -->
<g id="edge11" class="edge">
<title>parse_cond&#45;&gt;search_cond</title>
<path fill="none" stroke="black" d="M322.86,-359.7C324.23,-352.32 325.87,-343.52 327.4,-335.25"/>
<polygon fill="black" stroke="black" points="330.81,-336.06 329.2,-325.59 323.93,-334.79 330.81,-336.06"/>
</g>
<!-- watch_value -->
<g id="node13" class="node">
<title>watch_value</title>
<ellipse fill="none" stroke="black" cx="464.65" cy="-306" rx="57.49" ry="18"/>
<text xml:space="preserve" text-anchor="middle" x="464.65" y="-300.95" font-family="Times,serif" font-size="14.00">watch_value</text>
</g>
<!-- parse_watch&#45;&gt;watch_value -->
<g id="edge14" class="edge">
<title>parse_watch&#45;&gt;watch_value</title>
<path fill="none" stroke="black" d="M451.85,-359.7C453.64,-352.32 455.78,-343.52 457.79,-335.25"/>
<polygon fill="black" stroke="black" points="461.18,-336.12 460.14,-325.58 454.38,-334.47 461.18,-336.12"/>
</g>
<!-- modify_target -->
<g id="node16" class="node">
<title>modify_target</title>
<ellipse fill="none" stroke="black" cx="699.65" cy="-306" rx="63.63" ry="18"/>
<text xml:space="preserve" text-anchor="middle" x="699.65" y="-300.95" font-family="Times,serif" font-size="14.00">modify_target</text>
</g>
<!-- parse_set&#45;&gt;modify_target -->
<g id="edge17" class="edge">
<title>parse_set&#45;&gt;modify_target</title>
<path fill="none" stroke="black" d="M699.65,-359.7C699.65,-352.41 699.65,-343.73 699.65,-335.54"/>
<polygon fill="black" stroke="black" points="703.15,-335.62 699.65,-325.62 696.15,-335.62 703.15,-335.62"/>
</g>
</g>
</svg>
